<?xml version="1.0" encoding="UTF-8" standalone="no"?>
<svg
   xmlns:dc="http://purl.org/dc/elements/1.1/"
   xmlns:cc="http://creativecommons.org/ns#"
   xmlns:rdf="http://www.w3.org/1999/02/22-rdf-syntax-ns#"
   xmlns:svg="http://www.w3.org/2000/svg"
   xmlns="http://www.w3.org/2000/svg"
   xmlns:sodipodi="http://sodipodi.sourceforge.net/DTD/sodipodi-0.dtd"
   xmlns:inkscape="http://www.inkscape.org/namespaces/inkscape"
   enable-background="new 0 0 128 128"
   id="Layer_1"
   version="1.1"
   viewBox="0 0 128 128"
   xml:space="preserve"
   sodipodi:docname="526881 - management planning project plan strategy workflow.svg"
   inkscape:version="1.0.1 (0767f8302a, 2020-10-17)"><metadata
     id="metadata19"><rdf:RDF><cc:Work
         rdf:about=""><dc:format>image/svg+xml</dc:format><dc:type
           rdf:resource="http://purl.org/dc/dcmitype/StillImage" /></cc:Work></rdf:RDF></metadata><defs
     id="defs17" /><sodipodi:namedview
     pagecolor="#ffffff"
     bordercolor="#666666"
     borderopacity="1"
     objecttolerance="10"
     gridtolerance="10"
     guidetolerance="10"
     inkscape:pageopacity="0"
     inkscape:pageshadow="2"
     inkscape:window-width="1559"
     inkscape:window-height="843"
     id="namedview15"
     showgrid="false"
     inkscape:zoom="1.3398438"
     inkscape:cx="252.77675"
     inkscape:cy="-30.982459"
     inkscape:window-x="0"
     inkscape:window-y="33"
     inkscape:window-maximized="1"
     inkscape:current-layer="Layer_1" /><path
     d="M110,10v0.2V14v11.2l-95-0.1c-5.5,0-10,3.5-10,9v67c0,5.5,4.5,11,10,11h95c7.2,0,13-5.7,13-12.9V23.2  C123,16,117.2,10,110,10z M110,108.1H15c-3.3,0-6-3.7-6-7v-67c0-3.3,2.7-5,6-5h95v57.1v4c5,0,9,4,9,8.9S115,108.1,110,108.1z   M119,89.9c-1.4-1.3-3.1-2.4-5-3V15c3,1.5,5,4.7,5,8.2V89.9z"
     fill="#2C3E50"
     id="path2"
     style="fill:#5c5c5c;fill-opacity:1" /><path
     d="M70.1,44c1,0,1.9,0.8,1.9,1.8v8.3c0,1-0.8,1.8-1.8,1.8H50.8c-1,0-1.8-0.8-1.8-1.8v-8.3c0-1,0.8-1.8,1.8-1.8  H70.1 M70.2,40H50.8c-3.2,0-5.8,2.6-5.8,5.8v8.3c0,3.2,2.6,5.8,5.8,5.8h19.3c3.2,0,5.8-2.6,5.8-5.8v-8.3C76,42.6,73.4,40,70.2,40  L70.2,40z"
     fill="#3B97D3"
     id="path4"
     style="fill:#ff4c00;fill-opacity:1" /><path
     d="M67.1,82c1,0,1.9,0.8,1.9,1.8v8.3c0,1-0.8,1.8-1.8,1.8H53.8c-1,0-1.8-0.8-1.8-1.8v-8.3c0-1,0.8-1.8,1.8-1.8  H67.1 M67.2,78H53.8c-3.2,0-5.8,2.6-5.8,5.8v8.3c0,3.2,2.6,5.8,5.8,5.8h13.3c3.2,0,5.8-2.6,5.8-5.8v-8.3C73,80.6,70.4,78,67.2,78  L67.2,78z"
     fill="#3B97D3"
     id="path6"
     style="fill:#ff4c00;fill-opacity:1" /><path
     d="M99.1,82c1,0,1.9,0.8,1.9,1.8v8.3c0,1-0.8,1.8-1.8,1.8H85.8c-1,0-1.8-0.8-1.8-1.8v-8.3c0-1,0.8-1.8,1.8-1.8  H99.1 M99.2,78H85.8c-3.2,0-5.8,2.6-5.8,5.8v8.3c0,3.2,2.6,5.8,5.8,5.8h13.3c3.2,0,5.8-2.6,5.8-5.8v-8.3C105,80.6,102.4,78,99.2,78  L99.2,78z"
     fill="#3B97D3"
     id="path8"
     style="fill:#ff4c00;fill-opacity:1" /><path
     d="M36.1,82c1,0,1.9,0.8,1.9,1.8v8.3c0,1-0.8,1.8-1.8,1.8H22.8c-1,0-1.8-0.8-1.8-1.8v-8.3c0-1,0.8-1.8,1.8-1.8  H36.1 M36.2,78H22.8c-3.2,0-5.8,2.6-5.8,5.8v8.3c0,3.2,2.6,5.8,5.8,5.8h13.3c3.2,0,5.8-2.6,5.8-5.8v-8.3C42,80.6,39.4,78,36.2,78  L36.2,78z"
     fill="#3B97D3"
     id="path10"
     style="fill:#ff4c00;fill-opacity:1" /><path
     d="M92.5,68H61V58c0-0.6-0.4-1-1-1s-1,0.4-1,1v10H29.5c-0.6,0-1.5,0.8-1.5,1.3v10.3c0,0.6,0.4,1,1,1s1-0.4,1-1  V70h29v8c0,0.6,0.4,1,1,1s1-0.4,1-1v-8h30v8c0,0.6,0.4,1,1,1s1-0.4,1-1v-8.7C93,68.8,93.1,68,92.5,68z"
     fill="#3B97D3"
     id="path12"
     style="fill:#ff4c00;fill-opacity:1" /></svg>
