<?xml version="1.0" encoding="UTF-8" standalone="no"?>
<!-- Created with Inkscape (http://www.inkscape.org/) -->

<svg
   xmlns:dc="http://purl.org/dc/elements/1.1/"
   xmlns:cc="http://creativecommons.org/ns#"
   xmlns:rdf="http://www.w3.org/1999/02/22-rdf-syntax-ns#"
   xmlns:svg="http://www.w3.org/2000/svg"
   xmlns="http://www.w3.org/2000/svg"
   xmlns:sodipodi="http://sodipodi.sourceforge.net/DTD/sodipodi-0.dtd"
   xmlns:inkscape="http://www.inkscape.org/namespaces/inkscape"
   width="620"
   height="180"
   viewBox="0 0 619.99986 180.00001"
   id="svg2"
   version="1.1"
   inkscape:version="0.91 r13725"
   sodipodi:docname="gen-logo.svg">
  <defs
     id="defs4" />
  <sodipodi:namedview
     id="base"
     pagecolor="#ffffff"
     bordercolor="#666666"
     borderopacity="1.0"
     inkscape:pageopacity="0.0"
     inkscape:pageshadow="2"
     inkscape:zoom="0.90509668"
     inkscape:cx="165.18493"
     inkscape:cy="-36.597691"
     inkscape:document-units="px"
     inkscape:current-layer="g4840"
     showgrid="false"
     showguides="true"
     inkscape:guide-bbox="true"
     inkscape:window-width="1920"
     inkscape:window-height="1035"
     inkscape:window-x="0"
     inkscape:window-y="24"
     inkscape:window-maximized="1"
     units="px" />
  <metadata
     id="metadata7">
    <rdf:RDF>
      <cc:Work
         rdf:about="">
        <dc:format>image/svg+xml</dc:format>
        <dc:type
           rdf:resource="http://purl.org/dc/dcmitype/StillImage" />
        <dc:title />
      </cc:Work>
    </rdf:RDF>
  </metadata>
  <g
     inkscape:label="Layer 1"
     inkscape:groupmode="layer"
     id="layer1"
     transform="translate(0,-872.3622)">
    <g
       id="g3405"
       transform="translate(760,-54.285714)" />
    <g
       id="g4840"
       inkscape:export-xdpi="140"
       inkscape:export-ydpi="140">
      <g
         id="g4247"
         transform="translate(109.93301,-118.77184)" />
      <path
         id="path4348"
         style="font-style:normal;font-variant:normal;font-weight:normal;font-stretch:normal;font-size:medium;line-height:86.00000143%;font-family:FuturaPress;-inkscape-font-specification:FuturaPress;letter-spacing:2.99569726px;word-spacing:0px;fill:#002857;fill-opacity:1;stroke:none;stroke-width:1px;stroke-linecap:butt;stroke-linejoin:miter;stroke-opacity:1"
         d="M 39.09779,1018.5062 C 10.36663,989.95963 9.2477696,988.37977 10.27651,977.81003 c 0.61859,-6.35561 4.91783,-12.52703 11.32243,-16.25295 3.62257,-2.10745 6.30531,-2.39951 38.32729,-2.32567 l 34.43192,0.0794 c 10.00767,9.17937 19.61912,18.76775 29.25962,28.33117 l -28.99678,28.61002 -28.9968,28.6102 z M 9.9999096,961.81664 c 0,-3.9185 4.2128604,-11.61548 7.7439104,-14.14831 6.59219,-4.7286 8.81351,-4.88721 63.58665,-4.54 l 52.62434,0.33359 0,5.09886 0,5.09886 -54.15483,-0.3433 c -52.48591,-0.3327 -54.30667,-0.27183 -59.08135,1.97992 -2.70957,1.27776 -6.22975,3.84401 -7.82261,5.70274 -2.75787,3.21822 -2.8961104,3.25725 -2.8961104,0.81764 z m 0,-15.78772 c 0,-3.9185 4.2128604,-11.61549 7.7439104,-14.14832 6.59219,-4.72858 8.81351,-4.88719 63.58665,-4.53999 l 52.62434,0.33359 0,5.09886 0,5.09886 -54.15483,-0.3433 c -52.48591,-0.3327 -54.30667,-0.27172 -59.08135,1.97992 -2.70957,1.27776 -6.22975,3.844 -7.82261,5.70274 -2.75787,3.21821 -2.8961104,3.25724 -2.8961104,0.81764 z m 0,-15.7877 c 0,-3.91851 4.2128604,-11.61549 7.7439104,-14.14834 6.59219,-4.72858 8.81351,-4.88718 63.58665,-4.53997 l 52.62434,0.33359 0,5.09885 0,5.09885 -54.15483,-0.34329 c -52.48591,-0.33271 -54.30667,-0.27173 -59.08135,1.97992 -2.70957,1.27776 -6.22975,3.84401 -7.82261,5.70275 -2.75787,3.21821 -2.8961104,3.25723 -2.8961104,0.81764 z m 0,-15.78772 c 0,-3.91852 4.2128604,-11.6155 7.7439104,-14.14834 6.59219,-4.72859 8.81351,-4.88718 63.58665,-4.53997 l 52.62434,0.33359 0,5.09884 0,5.09886 -54.15483,-0.34329 c -52.48591,-0.33271 -54.30667,-0.27173 -59.08135,1.97992 -2.70957,1.27776 -6.22975,3.844 -7.82261,5.70274 -2.75787,3.21822 -2.8961104,3.25724 -2.8961104,0.81765 z m 0,-15.78773 c 0,-3.91851 4.2128604,-11.61549 7.7439104,-14.14833 6.59219,-4.72859 8.81351,-4.88718 63.58665,-4.53998 l 52.62434,0.33359 0,5.09885 0,5.09886 -54.15483,-0.3433 c -52.48591,-0.3327 -54.30667,-0.27162 -59.08135,1.97992 -2.70957,1.27777 -6.22975,3.84401 -7.82261,5.70275 -2.75787,3.21822 -2.8961104,3.25723 -2.8961104,0.81764 z M 190.56824,919.33331 c -2.263,0 -4.16979,0.61676 -5.72037,1.85028 -1.50866,1.23351 -2.26299,2.97165 -2.26299,5.21442 0,1.86896 0.60765,3.53233 1.82296,4.99012 1.25723,1.45779 3.16402,2.18668 5.72037,2.18668 3.01733,0 6.07657,-1.12137 9.17771,-3.36413 l -0.44002,13.62474 c -4.10693,1.12138 -7.3338,1.68207 -9.68062,1.68207 -3.60403,0 -7.08233,-0.71021 -10.43492,-2.13063 -3.31069,-1.42041 -5.99277,-3.55102 -8.04624,-6.39184 -2.05345,-2.84083 -3.08017,-6.3171 -3.08017,-10.42881 0,-3.21462 0.75433,-6.27972 2.26299,-9.19529 1.55057,-2.91559 3.93929,-5.27048 7.16615,-7.06468 3.22687,-1.83159 7.24998,-2.74738 12.06933,-2.74738 3.18496,0 6.49565,0.57937 9.93206,1.73813 l 0,13.51261 c -2.51445,-2.31753 -5.34319,-3.47629 -8.48624,-3.47629 z m 33.21693,16.31606 c 2.26301,0 3.39451,-0.97186 3.39451,-2.91559 0,-1.86897 -1.1734,-2.80344 -3.52021,-2.80344 l -3.33165,0 0,5.71903 z m 0,8.97102 -17.28679,0 0,-36.33263 13.82944,0 0,13.56867 3.3945,0 c 5.48987,0 9.78539,0.80365 12.88653,2.41096 3.10116,1.6073 4.65174,4.37338 4.65174,8.29819 0,4.22386 -1.59248,7.28895 -4.77745,9.19529 -3.18497,1.90635 -7.41764,2.85952 -12.69797,2.85952 z m 20.80703,0 0,-36.33263 13.7037,0 0,36.33263 z m 22.6887,0 0,-36.33263 14.3952,0 0,15.53108 9.2406,-15.53108 16.5953,0 -12.3208,17.94204 14.0181,18.39059 -17.7269,0 -9.8063,-15.19467 0,15.19467 z m 55.76151,0 0,-24.38996 -8.17191,0 0,-11.94267 30.92761,0 0,11.94267 -8.1719,0 0,24.38996 z m 46.4021,-8.97102 c 2.263,0 3.3945,-0.97186 3.3945,-2.91559 0,-1.86897 -1.1734,-2.80344 -3.5202,-2.80344 l -3.3317,0 0,5.71903 z m 0,8.97102 -17.2868,0 0,-36.33263 13.8294,0 0,13.56867 3.3945,0 c 5.4899,0 9.7854,0.80365 12.8865,2.41096 3.1012,1.6073 4.6518,4.37338 4.6518,8.29819 0,4.22386 -1.5925,7.28895 -4.7775,9.19529 -3.1849,1.90635 -7.4176,2.85952 -12.6979,2.85952 z m 20.807,0 0,-36.33263 13.70371,0 0,36.33263 z m 38.55931,-9.02708 c 2.2211,0 3.3317,-0.95318 3.3317,-2.85953 0,-1.86897 -1.1944,-2.80344 -3.5831,-2.80344 l -3.3945,0 0,5.66297 z m -0.44,-13.68082 c 1.8439,0 2.7659,-0.87842 2.7659,-2.63524 0,-0.78497 -0.2514,-1.36434 -0.7543,-1.73813 -0.461,-0.3738 -1.0896,-0.5607 -1.8859,-0.5607 l -3.3316,0 0,4.93407 z m -16.8467,22.7079 0,-36.33263 19.4869,0 c 4.1907,0 7.4804,0.82235 9.8692,2.46703 2.3887,1.64468 3.5831,3.83137 3.5831,6.56005 0,2.46703 -0.5239,4.29862 -1.5716,5.49476 -1.0477,1.19614 -2.703,2.18668 -4.966,2.97164 5.4899,1.23352 8.2348,3.99959 8.2348,8.2982 0,7.0273 -5.0708,10.54095 -15.2124,10.54095 z m 42.0371,0 0,-36.33263 14.3952,0 0,15.53108 9.2405,-15.53108 16.59541,0 -12.32081,17.94204 14.01801,18.39059 -17.72681,0 -9.8063,-15.19467 0,15.19467 z m 71.41391,-13.23226 -2.8916,-12.05482 -0.3143,0 -2.8916,12.05482 z m -25.3959,13.23226 14.3952,-36.33263 16.281,0 14.2695,36.33263 -15.7781,0 -1.2573,-4.59764 -11.0007,0 -1.32,4.59764 z m 65.615,-20.12872 3.52021,0 c 2.0535,0 3.0802,-0.99056 3.0802,-2.97167 0,-2.01848 -1.1105,-3.02772 -3.3316,-3.02772 l -3.26881,0 z m -0.063,9.47563 0,10.65309 -14.6466,0 0,-36.33263 18.16681,0 c 5.6575,0 9.9111,1.04662 12.7608,3.13985 2.8497,2.05586 4.2746,5.40129 4.2746,10.03632 0,3.51366 -1.5087,6.48531 -4.526,8.91496 -2.9754,2.39228 -7.1033,3.58841 -12.3837,3.58841 z m -389.71265,58.87235 0,-24.38997 -8.17193,0 0,-11.94269 30.92763,0 0,11.94269 -8.17192,0 0,24.38997 z m 29.55529,0 0,-36.33266 14.64664,0 0,19.45592 8.92627,-19.45592 14.64663,0 0,36.33266 -14.64663,0 0,-18.22238 -8.92627,18.22238 z m 67.84463,-25.28706 c -2.263,0 -4.1698,0.61676 -5.7204,1.85028 -1.5087,1.23351 -2.263,2.97164 -2.263,5.2144 0,1.86896 0.6077,3.53234 1.823,4.99013 1.2572,1.45779 3.164,2.18669 5.7203,2.18669 3.0174,0 6.0766,-1.12138 9.1777,-3.36414 l -0.44,13.62474 c -4.1069,1.12139 -7.3338,1.68208 -9.6806,1.68208 -3.604,0 -7.0823,-0.71021 -10.4349,-2.13063 -3.3107,-1.42041 -5.9928,-3.55102 -8.04625,-6.39185 -2.05346,-2.84083 -3.08019,-6.31709 -3.08019,-10.42882 0,-3.21461 0.75433,-6.27972 2.263,-9.19529 1.55057,-2.9156 3.93934,-5.2705 7.16614,-7.06471 3.2269,-1.83159 7.25,-2.74738 12.0694,-2.74738 3.1849,0 6.4956,0.57939 9.932,1.73816 l 0,13.51261 c -2.5144,-2.31751 -5.3432,-3.47627 -8.4862,-3.47627 z m 37.9944,0 c -2.263,0 -4.1698,0.61676 -5.7204,1.85028 -1.5087,1.23351 -2.263,2.97164 -2.263,5.2144 0,1.86896 0.6077,3.53234 1.823,4.99013 1.2572,1.45779 3.164,2.18669 5.7203,2.18669 3.0174,0 6.0766,-1.12138 9.17771,-3.36414 l -0.44,13.62474 c -4.10691,1.12139 -7.33381,1.68208 -9.68061,1.68208 -3.604,0 -7.0823,-0.71021 -10.4349,-2.13063 -3.3107,-1.42041 -5.9928,-3.55102 -8.0462,-6.39185 -2.0535,-2.84083 -3.0802,-6.31709 -3.0802,-10.42882 0,-3.21461 0.7543,-6.27972 2.263,-9.19529 1.5505,-2.9156 3.9393,-5.2705 7.1661,-7.06471 3.2269,-1.83159 7.25,-2.74738 12.0694,-2.74738 3.1849,0 6.4956,0.57939 9.93201,1.73816 l 0,13.51261 c -2.5144,-2.31751 -5.34321,-3.47627 -8.48621,-3.47627 z m 33.21691,16.31604 c 2.263,0 3.3945,-0.97186 3.3945,-2.91558 0,-1.86896 -1.1734,-2.80344 -3.5202,-2.80344 l -3.3317,0 0,5.71902 z m 0,8.97102 -17.2868,0 0,-36.33266 13.8294,0 0,13.5687 3.3945,0 c 5.4899,0 9.7854,0.80365 12.8866,2.41096 3.1011,1.60731 4.6517,4.37338 4.6517,8.29819 0,4.22386 -1.5925,7.28897 -4.7775,9.1953 -3.1849,1.90634 -7.4176,2.85951 -12.6979,2.85951 z m 59.35361,-24.83853 c -1.5506,0 -2.91261,0.67284 -4.08601,2.01849 -1.1315,1.30827 -1.6972,2.91558 -1.6972,4.82192 0,1.90634 0.5657,3.53235 1.6972,4.87801 1.1734,1.30827 2.53541,1.9624 4.08601,1.9624 1.6344,0 2.9964,-0.65413 4.086,-1.9624 1.1315,-1.34566 1.6972,-2.97167 1.6972,-4.87801 0,-1.90634 -0.5657,-3.51365 -1.6972,-4.82192 -1.0896,-1.34565 -2.4516,-2.01849 -4.086,-2.01849 z m -17.85251,11.21379 -3.3945,0 0,13.62474 -14.2695,0 0,-36.33266 14.2695,0 0,13.40049 3.5202,0 c 1.0896,-4.1491 3.2687,-7.55064 6.5375,-10.20457 3.2688,-2.65392 6.9776,-3.98088 11.12641,-3.98088 2.5983,0 5.008,0.50462 7.2291,1.51386 2.2211,1.00924 4.1488,2.37358 5.7832,4.09303 1.6763,1.71945 2.9754,3.71926 3.8974,5.9994 0.9219,2.28012 1.3829,4.74715 1.3829,7.40108 0,3.43889 -0.8172,6.61613 -2.4516,9.53171 -1.6344,2.91558 -3.8764,5.2331 -6.7261,6.95254 -2.8078,1.68207 -5.8461,2.52312 -9.1149,2.52312 -4.23261,0 -8.00431,-1.34566 -11.31491,-4.03697 -3.2688,-2.72869 -5.4271,-6.22365 -6.4747,-10.48489 z m 63.48721,13.62474 0,-36.33266 25.5216,0 0,9.92421 -10.8749,0 0,26.40845 z m 48.15831,-20.12873 3.5202,0 c 2.0535,0 3.0802,-0.99055 3.0802,-2.97166 0,-2.01847 -1.1105,-3.02771 -3.3316,-3.02771 l -3.2688,0 z m -0.063,9.47564 0,10.65309 -14.64661,0 0,-36.33266 18.16681,0 c 5.6575,0 9.9111,1.04662 12.7608,3.13986 2.8497,2.05586 4.2746,5.40132 4.2746,10.03636 0,3.51364 -1.5087,6.4853 -4.526,8.91495 -2.9754,2.39227 -7.1033,3.5884 -12.3837,3.5884 z m 47.1616,-12.22301 5.0028,-13.45656 16.5953,0 -17.0152,36.33266 -16.6581,0 4.3204,-9.30744 -15.2784,-27.02522 16.5953,0 z m 27.50541,22.8761 0,-36.33266 38.2195,0 0,36.33266 -14.6466,0 0,-26.40845 -8.9263,0 0,26.40845 z"
         inkscape:connector-curvature="0" />
    </g>
  </g>
</svg>
