<?xml version="1.0" encoding="UTF-8" standalone="no"?>
<svg
   xmlns:dc="http://purl.org/dc/elements/1.1/"
   xmlns:cc="http://creativecommons.org/ns#"
   xmlns:rdf="http://www.w3.org/1999/02/22-rdf-syntax-ns#"
   xmlns:svg="http://www.w3.org/2000/svg"
   xmlns="http://www.w3.org/2000/svg"
   xmlns:sodipodi="http://sodipodi.sourceforge.net/DTD/sodipodi-0.dtd"
   xmlns:inkscape="http://www.inkscape.org/namespaces/inkscape"
   enable-background="new 0 0 128 128"
   id="Layer_1"
   version="1.1"
   viewBox="0 0 128 128"
   xml:space="preserve"
   inkscape:version="0.91 r13725"
   sodipodi:docname="incident.svg"><metadata
     id="metadata4198"><rdf:RDF><cc:Work
         rdf:about=""><dc:format>image/svg+xml</dc:format><dc:type
           rdf:resource="http://purl.org/dc/dcmitype/StillImage" /></cc:Work></rdf:RDF></metadata><defs
     id="defs4196" /><sodipodi:namedview
     pagecolor="#ffffff"
     bordercolor="#666666"
     borderopacity="1"
     objecttolerance="10"
     gridtolerance="10"
     guidetolerance="10"
     inkscape:pageopacity="0"
     inkscape:pageshadow="2"
     inkscape:window-width="1559"
     inkscape:window-height="834"
     id="namedview4194"
     showgrid="false"
     inkscape:zoom="1.8119611"
     inkscape:cx="-16.491027"
     inkscape:cy="74.327217"
     inkscape:window-x="0"
     inkscape:window-y="37"
     inkscape:window-maximized="1"
     inkscape:current-layer="Layer_1" /><g
     id="g4270"><path
       inkscape:connector-curvature="0"
       style="fill:#5c5c5c;fill-opacity:1"
       id="path4188"
       d="m 64,12 c -28.7,0 -52,23.3 -52,52 0,28.7 23.3,52 52,52 28.7,0 52,-23.3 52,-52 C 116,35.3 92.7,12 64,12 Z m 0,100 C 37.5,112 16,90.5 16,64 16,37.5 37.5,16 64,16 c 26.5,0 48,21.5 48,48 0,26.5 -21.5,48 -48,48 z" /><path
       inkscape:connector-curvature="0"
       style="opacity:1;fill:#ff4c00;fill-opacity:1;stroke:#ff4c00;stroke-width:2;stroke-miterlimit:4;stroke-dasharray:none;stroke-opacity:1"
       id="path4190"
       d="m 64,79.7 c -0.4,0 -0.7,-0.2 -0.9,-0.6 -0.4,-0.9 -10.3,-22.7 -10.3,-40.5 0,-6.2 5,-11.2 11.2,-11.2 6.2,0 11.2,5 11.2,11.2 0,17.8 -9.9,39.6 -10.3,40.5 -0.2,0.4 -0.5,0.6 -0.9,0.6 z m 0,-50.2 c -5.1,0 -9.2,4.1 -9.2,9.2 0,14.2 6.7,31.6 9.2,37.5 2.5,-5.9 9.2,-23.3 9.2,-37.5 0,-5.1 -4.1,-9.2 -9.2,-9.2 z" /><path
       inkscape:connector-curvature="0"
       style="fill:#ff4c00;fill-opacity:1;stroke:#ff4c00;stroke-width:1.5;stroke-miterlimit:4;stroke-dasharray:none;stroke-opacity:1"
       id="path4192"
       d="m 64,100.5 c -4.4,0 -8.1,-3.6 -8.1,-8.1 0,-4.5 3.6,-8.1 8.1,-8.1 4.5,0 8.1,3.6 8.1,8.1 0,4.5 -3.7,8.1 -8.1,8.1 z m 0,-14.1 c -3.3,0 -6.1,2.7 -6.1,6.1 0,3.3 2.7,6.1 6.1,6.1 3.3,0 6.1,-2.7 6.1,-6.1 0,-3.4 -2.8,-6.1 -6.1,-6.1 z" /></g></svg>