<?xml version="1.0" encoding="UTF-8" standalone="no"?>
<svg
   xmlns:dc="http://purl.org/dc/elements/1.1/"
   xmlns:cc="http://creativecommons.org/ns#"
   xmlns:rdf="http://www.w3.org/1999/02/22-rdf-syntax-ns#"
   xmlns:svg="http://www.w3.org/2000/svg"
   xmlns="http://www.w3.org/2000/svg"
   xmlns:sodipodi="http://sodipodi.sourceforge.net/DTD/sodipodi-0.dtd"
   xmlns:inkscape="http://www.inkscape.org/namespaces/inkscape"
   enable-background="new 0 0 128 128"
   height="128px"
   id="Layer_1"
   version="1.1"
   viewBox="0 0 128 128"
   width="128px"
   xml:space="preserve"
   inkscape:version="0.91 r13725"
   sodipodi:docname="request.svg"><metadata
     id="metadata11"><rdf:RDF><cc:Work
         rdf:about=""><dc:format>image/svg+xml</dc:format><dc:type
           rdf:resource="http://purl.org/dc/dcmitype/StillImage" /><dc:title></dc:title></cc:Work></rdf:RDF></metadata><defs
     id="defs9" /><sodipodi:namedview
     pagecolor="#ffffff"
     bordercolor="#666666"
     borderopacity="1"
     objecttolerance="10"
     gridtolerance="10"
     guidetolerance="10"
     inkscape:pageopacity="0"
     inkscape:pageshadow="2"
     inkscape:window-width="1559"
     inkscape:window-height="834"
     id="namedview7"
     showgrid="false"
     inkscape:zoom="1.84375"
     inkscape:cx="65.084746"
     inkscape:cy="64"
     inkscape:window-x="0"
     inkscape:window-y="37"
     inkscape:window-maximized="1"
     inkscape:current-layer="Layer_1" /><path
     d="M82,82v4c0,3.3-2.7,6-6,6H40.4H39L38,92.8l-13,10V96v-4h-4h-4c-3.3,0-6-2.7-6-6V44c0-3.3,2.7-6,6-6h23v-4H17  c-5.5,0-10,4.5-10,10v42c0,5.5,4.5,10,10,10h4v15l19.4-15H76c5.5,0,10-4.5,10-10v-4H82z"
     fill="#3B97D3"
     id="path3"
     style="fill:#ff4c00;fill-opacity:1" /><path
     d="M111,22c3.3,0,6,2.7,6,6v42c0,3.3-2.7,6-6,6h-4h-4v4v6.9l-13-10L89,76h-1.4H52c-3.3,0-6-2.7-6-6V28  c0-3.3,2.7-6,6-6H111 M111,18H52c-5.5,0-10,4.5-10,10v42c0,5.5,4.5,10,10,10h35.6L107,95V80h4c5.5,0,10-4.5,10-10V28  C121,22.5,116.5,18,111,18L111,18z"
     fill="#2C3E50"
     id="path5"
     style="fill:#5c5c5c;fill-opacity:1" /></svg>