<?xml version="1.0" encoding="UTF-8" standalone="no"?>
<svg
   xmlns:dc="http://purl.org/dc/elements/1.1/"
   xmlns:cc="http://creativecommons.org/ns#"
   xmlns:rdf="http://www.w3.org/1999/02/22-rdf-syntax-ns#"
   xmlns:svg="http://www.w3.org/2000/svg"
   xmlns="http://www.w3.org/2000/svg"
   xmlns:sodipodi="http://sodipodi.sourceforge.net/DTD/sodipodi-0.dtd"
   xmlns:inkscape="http://www.inkscape.org/namespaces/inkscape"
   enable-background="new 0 0 128 128"
   id="Layer_1"
   version="1.1"
   viewBox="0 0 128 128"
   xml:space="preserve"
   inkscape:version="0.91 r13725"
   sodipodi:docname="if_planning-29_526858.svg"><metadata
     id="metadata23"><rdf:RDF><cc:Work
         rdf:about=""><dc:format>image/svg+xml</dc:format><dc:type
           rdf:resource="http://purl.org/dc/dcmitype/StillImage" /></cc:Work></rdf:RDF></metadata><defs
     id="defs21" /><sodipodi:namedview
     pagecolor="#ffffff"
     bordercolor="#666666"
     borderopacity="1"
     objecttolerance="10"
     gridtolerance="10"
     guidetolerance="10"
     inkscape:pageopacity="0"
     inkscape:pageshadow="2"
     inkscape:window-width="1920"
     inkscape:window-height="1035"
     id="namedview19"
     showgrid="false"
     inkscape:zoom="1.3037281"
     inkscape:cx="-63.273214"
     inkscape:cy="-52.636153"
     inkscape:window-x="0"
     inkscape:window-y="24"
     inkscape:window-maximized="1"
     inkscape:current-layer="Layer_1" /><path
     d="M110.7,55.2c0-0.5-0.2-0.9-0.6-1.2c0,0,0,0,0,0l-5.2-5.2c0,0,0,0,0,0c-0.3-0.3-0.8-0.5-1.3-0.6L98.7,48  c-0.6,0-1.1,0.2-1.5,0.6c0,0,0,0,0,0L48.2,98.2c-0.8,0.8-0.8,2.1,0,2.8c0.4,0.4,0.9,0.6,1.4,0.6c0.5,0,1-0.2,1.4-0.6l48.3-49  l3.3,0.2l4.1,4.1l0.2,3.3l-48.3,49c-0.8,0.8-0.8,2.1,0,2.8c0.4,0.4,0.9,0.6,1.4,0.6c0.5,0,1-0.2,1.4-0.6l48.9-49.6  c0.4-0.4,0.6-1,0.6-1.5c0,0,0,0,0,0L110.7,55.2z"
     id="path3"
     fill="#3B97D3"
     style="fill:#ff4c00;fill-opacity:1" /><path
     d="M55.3,105.5l48-48.7c0.4-0.4,0.4-1,0-1.4c-0.4-0.4-1-0.4-1.4,0l-48,48.7c-0.4,0.4-0.4,1,0,1.4  c0.2,0.2,0.5,0.3,0.7,0.3C54.8,105.8,55.1,105.7,55.3,105.5z"
     fill="#3B97D3"
     id="path5"
     style="fill:#ff4c00;fill-opacity:1" /><path
     d="M55.8,111.9l-7,1.7l-2.7-2.7l1.6-7c0.2-1.1-0.4-2.2-1.5-2.4c-1.1-0.2-2.2,0.4-2.4,1.5l-3.2,13.7  c-0.2,1.1,0.4,2.2,1.5,2.4c0.2,0,0.3,0.1,0.5,0.1c0.2,0,0.3,0,0.5-0.1c0,0,0,0,0,0l13.7-3.3c1.1-0.3,1.7-1.3,1.5-2.4  C58,112.3,56.9,111.7,55.8,111.9z"
     fill="#3B97D3"
     id="path7"
     style="fill:#ff4c00;fill-opacity:1" /><path
     d="M60.1,79.3c0,0,0.8,0.7,2.1,1.9l2.8-2.9c-0.7-0.7-1.4-1.4-2.1-2c-3.4-3.1-7.6-4.6-12.9-4.6  c-1.2,0-2.5,0.1-3.8,0.2c-0.1,0-0.2,0-0.3,0c-1.7,0-3.5-1.5-5.1-3.2c0.8,0.4,1.8,0.7,3,0.7c2,0,3.6-0.9,5.4-2.2  c3.3-2.4,4.8-6.8,5.9-10.7c1.2-4.6-1.6-7.6-5.5-10.1c0.8,0,1.6,0.1,2.2,0.2c4.5,0.6,7.5,4.3,7.5,6.1c-0.1,3.6-0.3,11,5.8,17  c0.1,0.1,1.8,1.7,4.4,4.2l2.8-2.9c-2.6-2.5-4.3-4.1-4.4-4.2c-4.5-4.4-4.7-10-4.6-14.1c0.1-4-4.6-9.3-11-10.2  C45.8,41.9,35,43.6,41.9,47c6.9,3.4,10,5.3,9.1,8.5c-0.9,3.2-2,6.8-4.4,8.5c-2.3,1.7-3.2,1.8-4.9,0.8c-1.6-0.9-2.9-1.7-6.6-3.8  c-3.6-2-4.5,1.2-2.2,4.3c2.3,3.2,7.2,11.3,13.5,10.5C52.8,75.2,57,76.4,60.1,79.3z"
     fill="#3B97D3"
     id="path9"
     style="fill:#ff4c00;fill-opacity:1" /><path
     d="M101.5,90.6c0.5,0,1-0.1,1.6-0.1c0.3,0,0.7-0.1,1-0.1c0.5,0,1,0.1,1.4,0.1V69.6l-4,4.1V90.6z"
     fill="#2C3E50"
     id="path11"
     style="fill:#5c5c5c" /><path
     d="M86.6,117.2c-0.5-1.1-0.7-2.2-0.7-3.3c0-0.2,0-0.5,0-0.7H62.5c-0.7,0.5-1.4,0.8-2.3,0.8c0,0.7-0.2,1.4-0.6,2  c-0.3,0.5-0.7,0.9-1.1,1.2H86.6z"
     fill="#2C3E50"
     id="path13"
     style="fill:#5c5c5c" /><path
     d="M38.7,116.3l0.7-3.1H30c-3.3,0-6.5-3.2-6.5-6.5v-90c0-3.3,3.2-5.5,6.5-5.5h55.5v6.5c0,5.5,4,9.5,9.5,9.5h6.5  v19l2.2,0.1c0.6,0,1.2,0.2,1.8,0.5V25.2c0-0.5-0.2-1-0.6-1.4l-16-16c-0.4-0.4-0.9-0.6-1.4-0.6H30c-5.5,0-10.5,4-10.5,9.5v90  c0,5.5,5,10.5,10.5,10.5h8.6C38.6,116.9,38.6,116.6,38.7,116.3z M89.5,14l9.2,9.2H95c-3.3,0-5.5-2.2-5.5-5.5V14z"
     fill="#2C3E50"
     id="path15"
     style="fill:#5c5c5c" /><path
     d="M115.8,102.3c-2.1-2.9-6.7-10.5-12.5-9.8c-5.8,0.7-9.4-1.1-12.3-3.8c0,0-0.8-0.8-2.2-2.1L86,89.5  c0.9,0.9,1.7,1.6,2.3,2.2c3.7,3.4,7.8,5,12.7,5c0.9,0,1.9-0.1,2.9-0.2c0.1,0,0.2,0,0.3,0c1.2,0,2.4,0.8,3.6,2  c-0.5-0.1-1.1-0.2-1.7-0.2c-2,0-3.7,1-5.2,2.1c-3.2,2.3-4.6,6.4-5.6,10.1c-1.1,4.1,1.1,6.8,4.3,9.1c-0.3,0-0.7-0.1-1-0.1  c-4.2-0.5-6.7-4-6.7-5.4c0.1-3.1,0.2-10.4-5.4-16c-0.1-0.1-1.8-1.7-4.7-4.4L79,96.5c2.8,2.6,4.6,4.3,4.7,4.4c4.2,4.1,4.3,9.3,4.2,13  c-0.1,3.7,4.3,8.7,10.2,9.4c5.9,0.8,15.9-0.8,9.5-4c-6.4-3.2-9.3-4.9-8.5-7.9c0.8-3,1.9-6.3,4.1-7.9c2.2-1.6,3-1.6,4.5-0.8  c1.5,0.9,2.7,1.6,6.1,3.5C117.2,108.2,118,105.2,115.8,102.3z"
     fill="#3B97D3"
     id="path17"
     style="fill:#ff4c00;fill-opacity:1" /></svg>